<svg width="24.000000" height="24.000000" viewBox="0 0 24 24" fill="none" xmlns="http://www.w3.org/2000/svg" xmlns:xlink="http://www.w3.org/1999/xlink">
	<desc>
			Created with Pixso.
	</desc>
	<defs/>
	<path id="Subtract" d="M24 12C24 18.62 18.62 24 12 24C5.37 24 0 18.62 0 12C0 5.37 5.37 0 12 0C18.62 0 24 5.37 24 12ZM18.21 8.01C18.67 8.01 18.77 8.24 18.67 8.55C18.5 9.27 17.16 11.17 16.74 11.76C16.66 11.87 16.62 11.94 16.62 11.94C16.46 12.19 16.4 12.31 16.62 12.59C16.7 12.7 16.87 12.86 17.07 13.04C17.27 13.23 17.49 13.44 17.67 13.65C18.32 14.36 18.83 14.96 18.96 15.37C19.08 15.78 18.87 16 18.43 16L16.9 16C16.5 16 16.29 15.77 15.84 15.3C15.65 15.09 15.42 14.84 15.11 14.54C14.2 13.7 13.8 13.59 13.58 13.59C13.27 13.59 13.18 13.66 13.18 14.09L13.18 15.41C13.18 15.77 13.06 15.98 12.08 15.98C10.47 15.98 8.67 15.04 7.41 13.29C5.51 10.73 5 8.79 5 8.41C5 8.19 5.07 8 5.51 8L7.06 8C7.44 8 7.59 8.15 7.74 8.56C8.49 10.66 9.75 12.49 10.27 12.49C10.47 12.49 10.56 12.41 10.56 11.94L10.56 9.77C10.52 9.16 10.3 8.89 10.13 8.69C10.03 8.57 9.95 8.47 9.95 8.34C9.95 8.17 10.1 8 10.33 8L12.73 8C13.06 8 13.18 8.17 13.18 8.54L13.18 11.45C13.18 11.77 13.31 11.88 13.42 11.88C13.61 11.88 13.77 11.77 14.13 11.43C15.23 10.24 16.01 8.42 16.01 8.42C16.12 8.21 16.29 8.01 16.68 8.01L18.21 8.01Z" fill="#1A1A1A" fill-opacity="1.000000" fill-rule="evenodd"/>
</svg>
