<svg width="40.000000" height="40.000000" viewBox="0 0 40 40" fill="none" xmlns="http://www.w3.org/2000/svg" xmlns:xlink="http://www.w3.org/1999/xlink">
	<desc>
			Created with Pixso.
	</desc>
	<defs/>
	<rect id="Rectangle 5" rx="10.000000" width="40.000000" height="40.000000" fill="#FFE44D" fill-opacity="1.000000"/>
	<path id="Vector" d="M20.67 20.83C22.64 20.35 23.55 22.78 21.58 23.28C19.57 23.8 18.54 21.34 20.67 20.83ZM19.71 31.19L19.75 31.16C19.99 31.24 20.47 32.79 22.17 33.25C24.39 33.85 26.95 32.63 28.29 30.56C28.67 29.96 29.87 27.83 28.86 27.41C27.97 27.04 27.62 29.11 27.05 29.95C26.45 30.86 25.4 31.56 24.36 31.8C20.79 32.64 20.41 29.56 20.44 26.84C22.22 26.31 24.15 24.01 24.03 22.07C23.88 19.66 20.54 18.92 18.63 19.3C16.11 19.8 14.69 21.51 15.99 24.05C17.44 26.92 19.03 26.35 19.1 27.19C19.36 30.18 17.61 33.51 13.9 31.3C13.01 30.76 12.4 29.98 11.96 29.05C11.79 28.7 11.54 27.7 11.39 27.55C10.97 27.1 10.23 27.44 10.25 28.12C10.32 29.91 12.28 32.21 13.9 32.88C16.12 33.79 18.6 33.58 19.71 31.19L19.71 31.19ZM23.94 17.52C23.43 16.33 22.93 15.15 23.73 13.87C24.46 12.7 25.86 12.65 26.9 13.46C29.07 15.15 29.07 19.35 26.33 19.17C27.83 18.68 28.28 17.09 27.57 15.71L25.95 16.93L26.49 14.85C24.58 14.37 23.89 15.91 23.94 17.52L23.94 17.52ZM24.78 11.54C19.81 12.55 22.13 21.43 27.02 20.57C31.98 19.69 29.7 10.54 24.78 11.54ZM14.09 16.76L12.53 15.54C12.07 16.03 12.04 16.94 12.23 17.55C12.46 18.29 12.75 18.48 13.31 18.88C10.55 18.65 10.95 15.09 12.55 13.45C13.37 12.61 14.69 12.28 15.66 13.09C16.7 13.97 16.45 15.44 16.18 16.57C15.74 15.84 15.85 14.93 14.53 14.66C13.06 14.35 13.72 14.95 14.09 16.76ZM13.86 11.24C8.69 12.09 8.72 21.12 13.88 20.28C19.02 19.44 19 10.39 13.86 11.24ZM23.22 7.03C22.47 7.15 22.37 8.02 22.85 8.34C23.33 8.66 24.55 7.98 25.83 9.89C26.15 10.36 26.28 11.1 26.93 11.02C28.7 10.8 25.88 6.6 23.22 7.03ZM14.82 7.04C13.68 7.21 12.74 7.92 12.08 8.83C10.47 11.07 12.08 11.4 12.54 10.72C13.16 9.8 13.49 8.78 14.79 8.49C15.33 8.37 16.31 8.65 16.26 7.7C16.22 6.91 15.39 6.96 14.82 7.04L14.82 7.04Z" fill="#222327" fill-opacity="1.000000" fill-rule="evenodd"/>
</svg>
