<svg width="224.000000" height="56.000000" viewBox="0 0 224 56" fill="none" xmlns="http://www.w3.org/2000/svg" xmlns:xlink="http://www.w3.org/1999/xlink">
	<desc>
			Created with Pixso.
	</desc>
	<defs>
		<clipPath id="clip2600_6877">
			<rect width="224.000000" height="56.000000" fill="white" fill-opacity="0"/>
		</clipPath>
	</defs>
	<rect width="224.000000" height="56.000000" fill="#FFFFFF" fill-opacity="0"/>
	<g clip-path="url(#clip2600_6877)">
		<path d="M2.63 40.09C0.79 42.83 -0.38 44.29 0.11 47.97C0.46 50.62 1.88 53.11 4.11 54.58C6.55 56.18 9.69 56.46 12.32 55.11C15.15 53.65 15.92 51.99 17.04 49.18L42.99 49.18C44.13 52.05 44.89 53.67 47.78 55.15C53.05 57.84 59.59 53.81 59.98 47.4C60.07 45.81 59.82 44.24 59.17 42.79C58.41 41.09 57.78 40.86 56.91 39.59C58.09 37.01 58.5 34.88 57.24 32.17C55.04 27.47 48.95 26.49 45.58 30.72C44.82 31.66 44.86 33 44.38 34.12C43.91 35.2 43.37 36.02 42.71 36.97C47.91 37.8 44.52 34.61 47.61 31.59C49.82 29.44 52.9 29.84 54.82 32.14C57.79 35.7 54.42 38.72 54.45 39.9C54.48 40.87 58.07 42.35 57.98 46.89C57.87 53.18 50.37 56.37 46.38 51.4C42.25 46.26 50.63 46.99 29.91 46.99L19.59 46.99C18.48 46.99 15.6 46.52 15.21 47.83C14.73 49.47 14.75 50.04 13.6 51.46C9.57 56.42 1.99 53.06 2.04 46.67C2.06 45.28 2.45 43.86 3.23 42.7C3.93 41.66 5.59 40.7 4.91 39.6C4.04 38.19 3.42 37.99 3.27 36.02C2.9 31.01 8.41 28.38 11.72 31.65C14.61 34.49 11.26 37.88 16.78 36.97C16.12 36.03 15.45 35.11 15.09 34.05C14.64 32.74 14.51 31.79 13.63 30.69C12.01 28.66 9.37 27.63 6.83 28.2C1.48 29.41 -0.13 35.56 2.63 40.09Z" fill="#222327" fill-opacity="1.000000" fill-rule="evenodd"/>
		<path d="M31.11 20.77C34.06 20.06 35.44 23.71 32.48 24.47C29.45 25.24 27.9 21.54 31.11 20.77ZM29.67 36.34L29.73 36.3C30.08 36.41 30.8 38.75 33.36 39.44C36.69 40.34 40.55 38.51 42.56 35.39C43.13 34.5 44.93 31.3 43.41 30.67C42.07 30.12 41.54 33.22 40.7 34.49C39.79 35.84 38.22 36.9 36.65 37.27C31.29 38.53 30.72 33.9 30.76 29.81C33.44 29.01 36.33 25.55 36.15 22.64C35.94 19.03 30.91 17.92 28.04 18.48C24.26 19.23 22.13 21.79 24.07 25.62C26.26 29.92 28.64 29.08 28.75 30.33C29.14 34.83 26.5 39.83 20.94 36.5C19.6 35.7 18.69 34.52 18.02 33.12C17.77 32.6 17.39 31.11 17.17 30.87C16.54 30.2 15.42 30.71 15.46 31.73C15.55 34.43 18.51 37.88 20.93 38.88C24.27 40.26 28 39.93 29.67 36.34L29.67 36.34ZM36.02 15.81C35.25 14.02 34.5 12.25 35.7 10.33C36.8 8.56 38.91 8.5 40.46 9.71C43.73 12.25 43.72 18.55 39.6 18.28C41.86 17.54 42.54 15.16 41.48 13.08L39.05 14.92L39.85 11.79C36.99 11.08 35.95 13.38 36.02 15.81L36.02 15.81ZM37.29 6.82C29.82 8.34 33.31 21.69 40.65 20.38C48.09 19.06 44.68 5.31 37.29 6.82ZM21.23 14.66L18.88 12.84C18.2 13.56 18.14 14.94 18.42 15.86C18.77 16.96 19.2 17.25 20.05 17.85C15.91 17.51 16.51 12.16 18.91 9.69C20.14 8.43 22.12 7.93 23.58 9.15C25.14 10.47 24.76 12.68 24.36 14.38C23.71 13.29 23.87 11.92 21.89 11.51C19.68 11.04 20.67 11.94 21.23 14.66ZM20.87 6.37C13.11 7.65 13.15 21.22 20.9 19.95C28.63 18.7 28.6 5.09 20.87 6.37ZM34.93 0.04C33.82 0.22 33.66 1.53 34.38 2.01C35.1 2.49 36.93 1.47 38.86 4.35C39.34 5.05 39.54 6.17 40.51 6.04C43.17 5.71 38.94 -0.61 34.93 0.04ZM22.32 0.06C20.6 0.31 19.2 1.38 18.2 2.76C15.78 6.12 18.21 6.62 18.89 5.6C19.83 4.21 20.33 2.67 22.28 2.24C23.09 2.06 24.56 2.49 24.49 1.05C24.43 -0.13 23.17 -0.06 22.31 0.07L22.32 0.06Z" fill="#222327" fill-opacity="1.000000" fill-rule="evenodd"/>
		<path d="M80 41.5C79.21 41.5 78.59 41.27 78.14 40.81C77.7 40.35 77.49 39.7 77.49 38.87L77.49 24.39C77.49 23.56 77.7 22.92 78.14 22.46C78.59 22 79.21 21.77 80 21.77L85.5 21.77C88.5 21.77 90.82 22.61 92.47 24.3C94.13 25.98 94.96 28.39 94.96 31.52C94.96 34.66 94.12 37.11 92.46 38.87C90.8 40.62 88.48 41.5 85.5 41.5L80 41.5ZM82.5 37.45L84.84 37.45C86.48 37.45 87.73 36.95 88.57 35.96C89.43 34.96 89.86 33.49 89.86 31.53C89.86 29.69 89.42 28.27 88.55 27.29C87.67 26.31 86.44 25.81 84.84 25.81L82.5 25.81L82.5 37.45ZM109.81 39.8C108.45 41.17 106.59 41.85 104.23 41.85C101.87 41.85 100.01 41.17 98.65 39.8C97.29 38.42 96.61 36.5 96.61 34.04C96.61 31.63 97.3 29.73 98.68 28.34C100.05 26.95 101.9 26.25 104.23 26.25C106.57 26.25 108.43 26.94 109.79 28.33C111.16 29.71 111.84 31.62 111.84 34.04C111.84 36.51 111.16 38.43 109.81 39.8ZM102.25 37.19C102.73 37.93 103.39 38.3 104.23 38.3C105.07 38.3 105.73 37.93 106.21 37.19C106.69 36.45 106.93 35.41 106.93 34.06C106.93 32.73 106.69 31.69 106.2 30.94C105.71 30.18 105.06 29.81 104.23 29.81C103.4 29.81 102.74 30.18 102.26 30.94C101.78 31.69 101.53 32.73 101.53 34.06C101.53 35.41 101.77 36.45 102.25 37.19ZM120.69 47.1C119.09 47.09 117.72 46.83 116.56 46.31C115.4 45.79 114.58 45.12 114.1 44.31C113.89 43.94 113.78 43.52 113.78 43.1C113.78 42.6 113.96 42.2 114.3 41.88C114.66 41.56 115.12 41.4 115.7 41.4C116.3 41.4 116.83 41.6 117.28 41.99C118.42 42.94 119.54 43.43 120.62 43.44C121.61 43.44 122.39 43.19 122.94 42.7C123.5 42.21 123.78 41.54 123.78 40.69L123.78 38.31L123.68 38.31C123.38 39.1 122.83 39.75 122.02 40.24C121.21 40.72 120.27 40.96 119.18 40.96C117.35 40.96 115.91 40.32 114.85 39.02C113.79 37.73 113.27 35.95 113.27 33.7C113.27 31.38 113.78 29.58 114.82 28.3C115.87 27.03 117.35 26.39 119.25 26.39C120.31 26.39 121.23 26.65 122.02 27.17C122.78 27.66 123.37 28.38 123.71 29.23L123.81 29.23L123.81 28.73C123.81 27.92 124.03 27.32 124.48 26.91C124.93 26.5 125.52 26.29 126.25 26.29C126.98 26.29 127.56 26.5 127.99 26.91C128.43 27.32 128.64 27.92 128.64 28.73L128.64 40.77C128.64 42.79 127.95 44.34 126.57 45.45C125.19 46.55 123.23 47.1 120.69 47.1L120.69 47.1ZM121.02 37.53C121.89 37.53 122.58 37.21 123.07 36.56C123.57 35.9 123.82 34.98 123.82 33.78C123.82 32.6 123.57 31.66 123.07 30.97C122.57 30.27 121.88 29.92 121.02 29.92C120.15 29.92 119.47 30.26 118.97 30.95C118.47 31.65 118.23 32.59 118.23 33.78C118.23 34.98 118.47 35.9 118.95 36.56C119.44 37.21 120.13 37.53 121.02 37.53L121.02 37.53ZM135.69 41.11C135.25 41.57 134.63 41.8 133.84 41.8C133.05 41.8 132.43 41.57 131.98 41.11C131.54 40.66 131.33 40.01 131.33 39.19L131.33 24.39C131.33 23.56 131.54 22.92 131.98 22.46C132.43 22 133.05 21.77 133.84 21.77L142.78 21.77C143.47 21.77 144.01 21.94 144.41 22.3C144.81 22.66 145.01 23.15 145.01 23.79C145.01 24.42 144.81 24.92 144.39 25.28C143.99 25.64 143.46 25.81 142.78 25.81L136.34 25.81L136.34 30.3L142.14 30.3C142.78 30.3 143.28 30.47 143.66 30.82C144.04 31.16 144.23 31.62 144.23 32.23C144.23 32.83 144.04 33.3 143.67 33.63C143.3 33.97 142.79 34.14 142.14 34.14L136.34 34.14L136.34 39.19C136.34 40.01 136.12 40.66 135.69 41.11ZM159.02 39.8C157.67 41.17 155.81 41.85 153.45 41.85C151.09 41.85 149.23 41.17 147.87 39.8C146.51 38.42 145.83 36.5 145.83 34.04C145.83 31.63 146.52 29.73 147.89 28.34C149.27 26.95 151.12 26.25 153.45 26.25C155.79 26.25 157.64 26.94 159.01 28.33C160.38 29.71 161.06 31.62 161.06 34.04C161.06 36.51 160.38 38.43 159.02 39.8ZM151.46 37.19C151.95 37.93 152.61 38.3 153.45 38.3C154.28 38.3 154.95 37.93 155.43 37.19C155.91 36.45 156.15 35.41 156.15 34.06C156.15 32.73 155.91 31.69 155.42 30.94C154.93 30.18 154.28 29.81 153.45 29.81C152.62 29.81 151.96 30.18 151.48 30.94C150.99 31.69 150.75 32.73 150.75 34.06C150.75 35.41 150.99 36.45 151.46 37.19ZM175.68 39.8C174.32 41.17 172.46 41.85 170.1 41.85C167.74 41.85 165.88 41.17 164.52 39.8C163.16 38.42 162.48 36.5 162.48 34.04C162.48 31.63 163.17 29.73 164.55 28.34C165.92 26.95 167.77 26.25 170.1 26.25C172.44 26.25 174.3 26.94 175.66 28.33C177.03 29.71 177.71 31.62 177.71 34.04C177.71 36.51 177.04 38.43 175.68 39.8ZM168.12 37.19C168.6 37.93 169.26 38.3 170.1 38.3C170.94 38.3 171.6 37.93 172.08 37.19C172.56 36.45 172.81 35.41 172.81 34.06C172.81 32.73 172.56 31.69 172.07 30.94C171.58 30.18 170.93 29.81 170.1 29.81C169.27 29.81 168.61 30.18 168.13 30.94C167.65 31.69 167.41 32.73 167.41 34.06C167.41 35.41 167.64 36.45 168.12 37.19ZM185.07 41.71C183.22 41.71 181.77 41.03 180.71 39.68C179.66 38.31 179.14 36.42 179.14 34.02C179.14 31.64 179.67 29.77 180.74 28.43C181.8 27.07 183.27 26.39 185.12 26.39C186.18 26.39 187.1 26.65 187.89 27.17C188.66 27.66 189.25 28.38 189.58 29.23L189.68 29.23L189.68 23.97C189.68 23.15 189.9 22.52 190.33 22.1C190.77 21.67 191.36 21.45 192.1 21.45C192.84 21.45 193.42 21.67 193.86 22.1C194.3 22.52 194.52 23.15 194.52 23.97L194.52 39.32C194.52 40.13 194.3 40.75 193.86 41.18C193.42 41.6 192.84 41.81 192.1 41.81C191.37 41.81 190.78 41.6 190.33 41.18C189.9 40.75 189.68 40.13 189.68 39.32L189.68 38.9L189.58 38.9C189.29 39.73 188.74 40.41 187.93 40.94C187.13 41.45 186.17 41.71 185.07 41.71ZM184.84 36.9C185.33 37.59 186.01 37.93 186.89 37.93C187.76 37.93 188.45 37.59 188.94 36.9C189.44 36.22 189.69 35.27 189.69 34.06C189.69 32.86 189.44 31.92 188.94 31.23C188.44 30.53 187.75 30.18 186.89 30.18C186.02 30.18 185.34 30.52 184.84 31.21C184.35 31.91 184.1 32.85 184.1 34.06C184.1 35.26 184.35 36.21 184.84 36.9Z" fill="#1A1A1A" fill-opacity="1.000000" fill-rule="nonzero"/>
	</g>
</svg>
