<svg width="24.000000" height="24.000000" viewBox="0 0 24 24" fill="none" xmlns="http://www.w3.org/2000/svg" xmlns:xlink="http://www.w3.org/1999/xlink">
	<desc>
			Created with Pixso.
	</desc>
	<defs>
		<clipPath id="clip2600_5090">
			<rect id="viber 1" width="24.000000" height="24.000000" fill="white" fill-opacity="0"/>
		</clipPath>
	</defs>
	<rect id="viber 1" width="24.000000" height="24.000000" fill="#FFFFFF" fill-opacity="0"/>
	<g clip-path="url(#clip2600_5090)">
		<path id="Vector" d="M23.15 13.89C23.87 7.86 22.81 4.06 20.89 2.34L20.9 2.33C17.81 -0.6 7.39 -1.04 3.7 2.47C2.04 4.18 1.45 6.7 1.39 9.81C1.33 12.93 1.25 18.77 6.69 20.35L6.7 20.35L6.69 22.77C6.69 22.77 6.65 23.75 7.28 23.95C8 24.18 8.32 23.73 10.55 21.07C14.27 21.39 17.13 20.65 17.45 20.54C18.21 20.29 22.46 19.73 23.15 13.89ZM10.91 19.37C10.91 19.37 8.56 22.3 7.82 23.07C7.58 23.32 7.32 23.29 7.32 22.8C7.32 22.48 7.34 18.78 7.34 18.78C2.73 17.46 3 12.49 3.05 9.89C3.1 7.29 3.58 5.16 4.98 3.72C8.22 0.68 17.36 1.36 19.69 3.55C22.53 6.07 21.52 13.2 21.52 13.45C20.94 18.32 17.49 18.63 16.86 18.84C16.59 18.93 14.07 19.58 10.91 19.37Z" fill="#1A1A1A" fill-opacity="1.000000" fill-rule="nonzero"/>
		<path id="Vector" d="M12.22 4.29C11.83 4.29 11.83 4.89 12.22 4.9C15.2 4.92 17.66 7 17.69 10.82C17.69 11.22 18.28 11.22 18.28 10.82L18.27 10.82C18.24 6.7 15.56 4.31 12.22 4.29Z" fill="#1A1A1A" fill-opacity="1.000000" fill-rule="nonzero"/>
		<path id="Vector" d="M16.15 10.19C16.14 10.59 16.73 10.61 16.73 10.2C16.78 7.93 15.38 6.06 12.75 5.87C12.37 5.84 12.33 6.44 12.71 6.47C14.99 6.65 16.19 8.2 16.15 10.19Z" fill="#1A1A1A" fill-opacity="1.000000" fill-rule="nonzero"/>
		<path id="Vector" d="M15.52 12.77C15.02 12.48 14.52 12.66 14.31 12.94L13.88 13.51C13.65 13.79 13.24 13.75 13.24 13.75C10.23 12.96 9.42 9.8 9.42 9.8C9.42 9.8 9.38 9.38 9.66 9.15L10.2 8.7C10.48 8.48 10.65 7.96 10.37 7.45C9.63 6.11 9.13 5.65 8.88 5.3C8.62 4.96 8.22 4.89 7.8 5.11L7.79 5.11C6.93 5.62 5.98 6.57 6.28 7.54C6.8 8.57 7.75 11.85 10.78 14.32C12.2 15.49 14.45 16.69 15.41 16.97L15.42 16.99C16.36 17.3 17.27 16.32 17.76 15.42L17.76 15.42C17.98 14.99 17.91 14.58 17.59 14.31C17.03 13.76 16.18 13.16 15.52 12.77Z" fill="#1A1A1A" fill-opacity="1.000000" fill-rule="nonzero"/>
		<path id="Vector" d="M13.16 8.1C14.12 8.16 14.59 8.66 14.64 9.69C14.66 10.09 15.24 10.06 15.23 9.66C15.16 8.31 14.46 7.56 13.2 7.49C12.81 7.47 12.77 8.08 13.16 8.1Z" fill="#1A1A1A" fill-opacity="1.000000" fill-rule="nonzero"/>
	</g>
</svg>
