<svg width="24.000000" height="24.000000" viewBox="0 0 24 24" fill="none" xmlns="http://www.w3.org/2000/svg" xmlns:xlink="http://www.w3.org/1999/xlink">
	<desc>
			Created with Pixso.
	</desc>
	<defs>
		<clipPath id="clip2600_5082">
			<rect id="whatsapp 1" width="24.000000" height="24.000000" fill="white" fill-opacity="0"/>
		</clipPath>
	</defs>
	<rect id="whatsapp 1" width="24.000000" height="24.000000" fill="#FFFFFF" fill-opacity="0"/>
	<g clip-path="url(#clip2600_5082)">
		<path id="Subtract" d="M12.0029 0L11.9971 0C5.38062 0 0 5.382 0 12C0 14.625 0.845947 17.058 2.28442 19.0335L0.789062 23.4915L5.40161 22.017C7.29907 23.274 9.5625 24 12.0029 24C18.6194 24 24 18.6165 24 12C24 5.3835 18.6194 0 12.0029 0ZM16.6299 18.6393C17.5464 18.4413 18.6953 17.7633 18.9849 16.9458C19.2744 16.1268 19.2744 15.4293 19.1904 15.2808C19.1047 15.1323 18.8723 15.0483 18.5198 14.8713C18.1672 14.6958 16.4529 13.8483 16.1289 13.7358C15.8108 13.6158 15.5078 13.6578 15.2678 13.9968C14.9304 14.4693 14.5989 14.9493 14.3303 15.2388C14.1189 15.4638 13.7739 15.4923 13.4844 15.3723C13.0959 15.2103 12.0098 14.8293 10.6704 13.6368C9.63232 12.7128 8.92725 11.5623 8.72339 11.2173C8.52295 10.8712 8.6958 10.6682 8.85547 10.4807C8.8584 10.4772 8.86133 10.4737 8.86426 10.4703C9.04126 10.2513 9.20923 10.0953 9.38623 9.89127C9.56323 9.68727 9.66235 9.58077 9.7749 9.34077C9.89478 9.10827 9.80933 8.86827 9.72388 8.69127C9.63989 8.51427 8.93481 6.79227 8.64526 6.09477C8.41284 5.53827 8.23584 5.51727 7.8833 5.50227C7.76343 5.49627 7.62988 5.48877 7.48145 5.48877C7.02246 5.48877 6.54395 5.62377 6.25439 5.91927C5.90186 6.27927 5.02734 7.11777 5.02734 8.83977C5.02734 10.5618 6.28296 12.2268 6.45239 12.4593C6.62939 12.6918 8.90039 16.2753 12.4268 17.7363C15.1838 18.8793 16.0029 18.7728 16.6299 18.6393Z" clip-rule="evenodd" fill="#1A1A1A" fill-opacity="1.000000" fill-rule="evenodd"/>
	</g>
</svg>
